<?xml version="1.0" standalone="no"?>
<!DOCTYPE svg PUBLIC "-//W3C//DTD SVG 20010904//EN"
 "http://www.w3.org/TR/2001/REC-SVG-20010904/DTD/svg10.dtd">
<svg version="1.0" xmlns="http://www.w3.org/2000/svg"
 width="198.000000pt" height="157.000000pt" viewBox="0 0 198.000000 157.000000"
 preserveAspectRatio="xMidYMid meet">
<metadata>
Created by potrace 1.15, written by Peter Selinger 2001-2017
</metadata>
<g transform="translate(0.000000,157.000000) scale(0.100000,-0.100000)"
fill="#000000" stroke="none">
<path d="M0 785 l0 -785 990 0 990 0 0 785 0 785 -990 0 -990 0 0 -785z m230
350 l0 -185 40 0 40 0 0 -50 0 -50 -105 0 -105 0 0 235 0 235 65 0 65 0 0
-185z m347 85 c50 -30 55 -49 51 -186 -3 -120 -4 -124 -31 -151 -25 -26 -33
-28 -108 -28 -75 0 -82 2 -104 27 -28 32 -40 109 -33 206 6 79 20 112 56 135
38 23 128 22 169 -3z m207 3 c2 -10 8 -58 12 -108 7 -95 22 -95 23 0 1 28 4
67 7 88 l7 37 55 0 c54 0 54 0 49 -27 -3 -16 -15 -103 -28 -195 l-22 -168 -78
0 c-91 0 -77 -25 -109 205 -12 83 -23 158 -26 168 -5 15 2 17 50 17 43 0 56
-4 60 -17z m416 2 c40 -21 60 -63 60 -130 l0 -55 -75 0 -76 0 3 -57 c3 -67 22
-78 26 -15 l3 42 60 0 59 0 0 -46 c0 -39 -5 -51 -35 -81 -35 -35 -36 -35 -105
-31 -63 3 -73 7 -103 36 l-32 32 0 123 c0 131 8 156 57 184 32 17 123 16 158
-2z m-525 -490 c37 -18 55 -51 55 -100 l0 -35 -59 0 c-60 0 -60 0 -63 32 -3
35 -22 48 -32 23 -12 -33 7 -61 71 -105 75 -50 93 -82 93 -162 0 -60 -16 -90
-60 -113 -42 -22 -128 -19 -167 5 -40 24 -50 43 -59 108 l-7 52 67 0 66 0 0
-44 c0 -49 13 -67 29 -39 19 37 1 72 -61 114 -80 55 -100 88 -95 161 3 59 22
92 62 109 34 13 125 10 160 -6z m246 -77 l1 -83 15 43 15 42 53 0 54 0 -26
-76 -25 -76 27 -101 c15 -56 30 -110 33 -120 4 -15 -3 -17 -56 -17 l-60 0 -15
63 -15 62 -1 -62 -1 -63 -60 0 -60 0 0 235 0 235 60 0 60 0 1 -82z m659 22 c0
-20 5 -30 15 -30 10 0 15 -10 15 -30 0 -20 -5 -30 -15 -30 -13 0 -15 -21 -15
-126 0 -117 1 -126 20 -131 14 -4 20 -14 20 -34 0 -29 0 -29 -63 -29 -96 0
-101 8 -105 181 -2 76 -8 139 -13 139 -5 0 -9 14 -9 30 0 17 5 30 10 30 6 0
10 14 10 30 l0 30 65 0 65 0 0 -30z m-229 -47 c29 -28 38 -85 39 -235 l0 -128
-65 0 c-44 0 -65 4 -65 12 0 9 -3 9 -12 0 -7 -7 -29 -12 -50 -12 -56 0 -88 34
-88 95 0 65 13 83 86 116 65 29 65 29 62 66 -4 51 -22 48 -26 -4 l-3 -43 -60
0 c-58 0 -59 0 -59 29 0 48 21 92 54 112 44 28 156 23 187 -8z m519 12 c40
-21 60 -63 60 -130 l0 -55 -75 0 -76 0 3 -57 c3 -67 22 -78 26 -15 l3 42 60 0
59 0 0 -46 c0 -39 -5 -51 -35 -81 -35 -35 -36 -35 -105 -31 -63 3 -73 7 -103
36 l-32 32 0 123 c0 131 8 156 57 184 32 17 123 16 158 -2z"/>
</g>
</svg>
